<svg id="_-Group-folders" data-name="-Group-folders" xmlns="http://www.w3.org/2000/svg" width="24" height="24" viewBox="0 0 24 24">
  <rect id="bound" width="24" height="24" fill="none"/>
  <path id="Combined-Shape" d="M4.5,21h17A1.5,1.5,0,0,0,23,19.5V8.5A1.5,1.5,0,0,0,21.5,7H11L8.439,4.439A1.5,1.5,0,0,0,7.379,4H4.5A1.5,1.5,0,0,0,3,5.5v14A1.5,1.5,0,0,0,4.5,21Z" fill="#0071a9" fill-rule="evenodd" opacity="0.3"/>
  <path id="Combined-Shape-Copy" d="M2.5,19h17A1.5,1.5,0,0,0,21,17.5V6.5A1.5,1.5,0,0,0,19.5,5H9L6.439,2.439A1.5,1.5,0,0,0,5.379,2H2.5A1.5,1.5,0,0,0,1,3.5v14A1.5,1.5,0,0,0,2.5,19Z" fill="#0071a9" fill-rule="evenodd"/>
</svg>
