<svg id="Stockholm-icons-_-Layout-_-Layout-4-blocks" data-name="Stockholm-icons-/-Layout-/-Layout-4-blocks" xmlns="http://www.w3.org/2000/svg" width="24" height="24" viewBox="0 0 24 24">
  <rect id="bound" width="24" height="24" fill="none"/>
  <rect id="Rectangle-7" width="7" height="7" rx="1.5" transform="translate(4 4)" fill="#0071a9"/>
  <path id="Combined-Shape" d="M5.5,13h4A1.5,1.5,0,0,1,11,14.5v4A1.5,1.5,0,0,1,9.5,20h-4A1.5,1.5,0,0,1,4,18.5v-4A1.5,1.5,0,0,1,5.5,13Zm9-9h4A1.5,1.5,0,0,1,20,5.5v4A1.5,1.5,0,0,1,18.5,11h-4A1.5,1.5,0,0,1,13,9.5v-4A1.5,1.5,0,0,1,14.5,4Zm0,9h4A1.5,1.5,0,0,1,20,14.5v4A1.5,1.5,0,0,1,18.5,20h-4A1.5,1.5,0,0,1,13,18.5v-4A1.5,1.5,0,0,1,14.5,13Z" fill="#0071a9" fill-rule="evenodd" opacity="0.3"/>
</svg>
