<svg id="Stockholm-icons-_-Communication-_-Sending" data-name="Stockholm-icons-/-Communication-/-Sending" xmlns="http://www.w3.org/2000/svg" width="24" height="24" viewBox="0 0 24 24">
  <rect id="bound" width="24" height="24" fill="none"/>
  <path id="Combined-Shape" d="M8,13.167,20.447,12,8,10.833V5.772a.5.5,0,0,1,.705-.456l13.84,6.228a.5.5,0,0,1,0,.912L8.705,18.684A.5.5,0,0,1,8,18.228Z" fill="#0071a9" fill-rule="evenodd"/>
  <path id="Combined-Shape-2" data-name="Combined-Shape" d="M4,16H5a1,1,0,0,1,0,2H4a1,1,0,0,1,0-2ZM1,11H5a1,1,0,0,1,0,2H1a1,1,0,0,1,0-2ZM4,6H5A1,1,0,0,1,5,8H4A1,1,0,0,1,4,6Z" fill="#0071a9" fill-rule="evenodd" opacity="0.3"/>
</svg>
