<svg id="Stockholm-icons-_-Code-_-Settings4" data-name="Stockholm-icons-/-Code-/-Settings4" xmlns="http://www.w3.org/2000/svg" width="24" height="24" viewBox="0 0 24 24">
  <rect id="bound" width="24" height="24" fill="none"/>
  <path id="Combined-Shape" d="M18.622,9.75h.128a2.25,2.25,0,0,1,0,4.5h-.065a.5.5,0,0,0-.358.835l.045.045a2.251,2.251,0,1,1-3.183,3.183l-.039-.039a.5.5,0,0,0-.841.349v.128a2.25,2.25,0,0,1-4.5,0,.524.524,0,0,0-.363-.514.485.485,0,0,0-.532.092l-.045.045A2.251,2.251,0,1,1,5.687,15.19l.039-.039a.5.5,0,0,0-.349-.841H5.25a2.25,2.25,0,0,1,0-4.5.524.524,0,0,0,.514-.363.485.485,0,0,0-.092-.532l-.045-.045A2.251,2.251,0,1,1,8.81,5.687l.039.039a.487.487,0,0,0,.538.1L9.495,5.8a.486.486,0,0,0,.255-.424V5.25a2.25,2.25,0,0,1,4.5,0v.065a.491.491,0,0,0,.3.449.485.485,0,0,0,.532-.092l.045-.045A2.251,2.251,0,1,1,18.313,8.81l-.039.039a.488.488,0,0,0-.1.538l.023.108A.486.486,0,0,0,18.622,9.75Z" opacity="0.3"/>
  <path id="Path" d="M12,15a3,3,0,1,0-3-3A3,3,0,0,0,12,15Z" fill-rule="evenodd"/>
</svg>
