<svg id="Stockholm-icons-_-Communication-_-Group" data-name="Stockholm-icons-/-Communication-/-Group" xmlns="http://www.w3.org/2000/svg" width="24" height="24" viewBox="0 0 24 24">
  <path id="Shape" d="M0,0H24V24H0Z" fill="none" fill-rule="evenodd"/>
  <path id="Combined-Shape" d="M18,14a3,3,0,1,1,3-3A3,3,0,0,1,18,14ZM9,11a4,4,0,1,1,4-4A4,4,0,0,1,9,11Z" fill="#000" opacity="0.3"/>
  <path id="Combined-Shape-2" data-name="Combined-Shape" d="M17.6,15c3.406.037,6.188,1.759,6.4,5.4a.51.51,0,0,1-.543.6H19.6A9.956,9.956,0,0,0,17.6,15ZM0,20.2C.388,15.427,4.262,13,8.983,13,13.771,13,17.7,15.293,18,20.2a.687.687,0,0,1-.751.8H.728A1.107,1.107,0,0,1,0,20.2Z" fill="#000"/>
</svg>
